<?xml version="1.0" encoding="UTF-8"?> <svg xmlns="http://www.w3.org/2000/svg" width="256" height="320" viewBox="0 0 256 320" fill="none"><g clip-path="url(#clip0_4700_886)"><path d="M185.296 22.515L159.285 51.3223L206.587 93.9678L232.597 65.1606L185.296 22.515Z" fill="#F3E7DD"></path><path d="M208.538 91.9766H85.332V232.815H208.538V91.9766Z" fill="#ED7143"></path><path fill-rule="evenodd" clip-rule="evenodd" d="M8.15017 32.2559C12.5629 32.2559 16.1402 35.8305 16.1402 40.2399V271.777C16.1402 289.414 30.4495 303.713 48.1002 303.713H215.89C220.303 303.713 223.881 307.287 223.881 311.697C223.881 316.106 220.303 319.681 215.89 319.681H48.1002C21.6237 319.681 0.160156 298.233 0.160156 271.777V40.2399C0.160156 35.8305 3.73744 32.2559 8.15017 32.2559Z" fill="#ED7143"></path><path fill-rule="evenodd" clip-rule="evenodd" d="M255.842 255.807V80.1588L175.941 0.318359H64.0813C46.4304 0.318359 32.1211 14.6167 32.1211 32.2545V255.807C32.1211 273.445 46.4304 287.744 64.0813 287.744H223.881C241.532 287.744 255.842 273.445 255.842 255.807ZM225.252 72.1746L183.931 30.8847V72.1746H225.252ZM197.571 149.676C200.691 146.559 200.691 141.503 197.571 138.385C194.451 135.268 189.392 135.268 186.271 138.385L128.001 196.612L101.691 170.322C98.5708 167.204 93.5117 167.204 90.3913 170.322C87.2714 173.439 87.2714 178.495 90.3913 181.613L128.001 219.194L197.571 149.676Z" fill="#ED7143"></path><path d="M212.643 141.813C211.893 133.429 204.403 127.217 196.013 127.965C161.407 131.034 128.523 168.833 111.594 191.813L101.631 180.51C96.0134 174.148 86.3501 173.549 79.9832 179.163C73.6163 184.776 73.017 194.433 78.6351 200.72L101.631 226.768C110.62 235.675 120.507 234.028 126.126 224.747C136.163 208.205 171.594 160.824 198.71 158.429C207.174 157.606 213.391 150.196 212.643 141.813Z" fill="#F3E7DD"></path></g><defs><clipPath id="clip0_4700_886"><rect width="256" height="320" fill="white"></rect></clipPath></defs></svg> 