<svg width="1200" height="126" viewBox="0 0 1200 126" fill="none" xmlns="http://www.w3.org/2000/svg">
<path d="M18 88.4922V113.842C18 119.692 19.8 122.992 21 124.492V125.992H0V124.492C1.2 122.992 3 119.692 3 113.842V33.1422C3 27.2922 1.2 23.9922 0 22.4922V20.9922H18C39.15 20.9922 48.3 38.2422 48.3 54.8922C48.3 71.3922 39.15 88.4922 18 88.4922ZM18 25.4922V83.9922C30.9 83.9922 31.65 70.4922 31.65 54.8922C31.65 39.1422 30.9 25.4922 18 25.4922ZM64.2195 80.9922L57.7695 37.0422C55.2195 26.6922 54.4695 24.1422 50.5695 22.4922V20.9922H75.1695V22.4922C72.9195 23.5422 70.6695 26.3922 72.4695 33.4422L79.3695 76.6422H80.4195L88.9695 33.1422C90.7695 24.2922 86.8695 23.8422 84.4695 22.4922V20.9922H102.92V22.4922C97.9695 24.4422 94.6695 25.6422 92.5695 37.0422L80.1195 102.742C75.9195 124.942 68.7195 128.992 56.4195 127.792V116.242C58.9695 116.842 61.3695 117.142 63.4695 117.142C68.8695 117.142 72.9195 114.742 74.2695 107.692L77.5695 90.8922C78.0195 85.0422 74.4195 80.3922 68.1195 80.3922C66.9195 80.3922 65.5695 80.6922 64.2195 80.9922ZM153.311 33.1422L146.111 43.4922H144.611C143.111 31.6422 139.811 23.9922 132.311 23.9922C119.561 23.9922 118.811 46.1922 118.811 73.4922C118.811 100.792 119.561 122.992 132.311 122.992C139.811 122.992 143.111 115.342 144.611 103.492H146.111L153.311 113.842C148.511 121.492 141.611 127.492 132.311 127.492C111.311 127.492 102.311 102.442 102.311 73.4922C102.311 44.5422 111.311 19.4922 132.311 19.4922C141.461 19.4922 148.511 25.6422 153.311 33.1422ZM194.258 37.1922L184.058 61.0422C210.458 61.6422 207.758 83.2422 207.758 119.992C207.758 121.192 208.658 121.942 209.558 121.942C210.308 121.942 211.208 121.192 211.208 119.992H215.708C215.708 124.492 210.458 127.192 205.058 127.192C199.058 127.192 192.758 123.892 192.758 115.342C192.758 87.8922 195.308 68.5422 181.058 65.5422H178.058V113.842C178.058 119.692 179.858 122.992 181.058 124.492V125.992H160.058V124.492C161.258 122.992 163.058 119.692 163.058 113.842V33.1422C163.058 27.2922 161.258 23.9922 160.058 22.4922V20.9922H181.058V22.4922C179.858 23.9922 178.058 27.2922 178.058 33.1422V61.0422H178.958L191.108 33.2922C195.158 23.8422 191.408 23.8422 189.008 22.4922V20.9922H206.408V22.4922C201.458 24.4422 198.758 26.6922 194.258 37.1922ZM239.928 121.492H250.428C256.278 121.492 259.578 119.692 261.078 118.492H262.578L260.928 125.992H221.928V124.492C223.128 122.992 224.928 119.692 224.928 113.842V33.1422C224.928 27.2922 223.578 23.5422 221.928 22.4922V20.9922H256.428L258.078 28.4922H256.578C255.078 27.2922 251.778 25.4922 245.928 25.4922H239.928V50.9922H240.228C246.078 50.9922 249.378 49.1922 250.878 47.9922H252.378V57.7422H251.028C249.528 56.5422 246.228 54.7422 240.378 54.7422H239.928V121.492ZM264.859 125.992V124.492C269.809 122.542 271.909 121.342 273.709 109.942L286.009 31.3422C286.609 26.6922 283.609 23.8422 280.759 23.2422V20.9922H299.959L315.109 109.942C317.659 120.292 318.409 122.842 322.309 124.492V125.992H297.709V124.492C298.909 122.992 302.209 120.592 300.409 113.542L296.209 88.4922H281.659L277.609 113.842C275.959 122.842 281.209 123.142 283.609 124.492V125.992H264.859ZM282.409 83.9922H295.459L289.009 46.0422H288.409L282.409 83.9922ZM345.661 31.4922C346.261 26.8422 343.261 23.8422 340.411 23.2422V20.9922H359.611L374.761 109.942C377.311 120.292 378.061 122.842 381.961 124.492V125.992H357.361V124.492C358.561 122.992 361.861 120.592 360.061 113.542L348.661 46.0422H348.061L337.261 113.842C335.611 122.842 340.861 123.142 343.261 124.492V125.992H324.511V124.492C329.461 122.542 331.561 121.342 333.361 109.942L345.661 31.4922ZM405.239 33.1422V52.4922C426.389 52.4922 435.539 72.5922 435.539 89.0922C435.539 105.742 426.389 125.992 405.239 125.992H387.239V124.492C388.439 122.992 390.239 119.692 390.239 113.842V33.1422C390.239 27.2922 388.439 23.9922 387.239 22.4922V20.9922H408.239V22.4922C407.039 23.9922 405.239 27.2922 405.239 33.1422ZM405.239 56.9922V121.492C418.139 121.492 418.889 104.842 418.889 89.0922C418.889 73.4922 418.139 56.9922 405.239 56.9922ZM494.814 33.1422L487.614 43.4922H486.114C484.614 31.6422 481.314 23.9922 473.814 23.9922C461.064 23.9922 460.314 46.1922 460.314 73.4922C460.314 100.792 461.064 122.992 473.814 122.992C481.314 122.992 484.614 115.342 486.114 103.492H487.614L494.814 113.842C490.014 121.492 483.114 127.492 473.814 127.492C452.814 127.492 443.814 102.442 443.814 73.4922C443.814 44.5422 452.814 19.4922 473.814 19.4922C482.964 19.4922 490.014 25.6422 494.814 33.1422ZM535.761 37.1922L525.561 61.0422C551.961 61.6422 549.261 83.2422 549.261 119.992C549.261 121.192 550.161 121.942 551.061 121.942C551.811 121.942 552.711 121.192 552.711 119.992H557.211C557.211 124.492 551.961 127.192 546.561 127.192C540.561 127.192 534.261 123.892 534.261 115.342C534.261 87.8922 536.811 68.5422 522.561 65.5422H519.561V113.842C519.561 119.692 521.361 122.992 522.561 124.492V125.992H501.561V124.492C502.761 122.992 504.561 119.692 504.561 113.842V33.1422C504.561 27.2922 502.761 23.9922 501.561 22.4922V20.9922H522.561V22.4922C521.361 23.9922 519.561 27.2922 519.561 33.1422V61.0422H520.461L532.611 33.2922C536.661 23.8422 532.911 23.8422 530.511 22.4922V20.9922H547.911V22.4922C542.961 24.4422 540.261 26.6922 535.761 37.1922ZM614.996 33.1422V113.842C614.996 119.692 616.796 122.992 617.996 124.492V125.992H596.996V124.492C598.196 122.992 599.996 119.692 599.996 113.842V53.5422H599.096L581.996 108.742V113.842C581.996 119.692 583.796 122.992 584.996 124.492V125.992H563.996V124.492C565.196 122.992 566.996 119.692 566.996 113.842V33.1422C566.996 27.2922 565.196 23.9922 563.996 22.4922V20.9922H584.996V22.4922C583.796 23.9922 581.996 27.2922 581.996 33.1422V91.3422H582.596L599.996 35.9922V33.1422C599.996 27.2922 598.196 23.9922 596.996 22.4922V20.9922H617.996V22.4922C616.796 23.9922 614.996 27.2922 614.996 33.1422ZM656.361 12.1422C661.311 12.1422 665.211 8.09219 662.511 1.79218L664.611 0.442186L673.611 5.24218C671.361 12.1422 662.511 15.2922 656.361 15.2922C650.211 15.2922 641.361 12.1422 639.111 5.24218L648.111 0.442186L650.211 1.79218C647.511 8.09219 651.411 12.1422 656.361 12.1422ZM680.361 33.1422V113.842C680.361 119.692 682.161 122.992 683.361 124.492V125.992H662.361V124.492C663.561 122.992 665.361 119.692 665.361 113.842V53.5422H664.461L647.361 108.742V113.842C647.361 119.692 649.161 122.992 650.361 124.492V125.992H629.361V124.492C630.561 122.992 632.361 119.692 632.361 113.842V33.1422C632.361 27.2922 630.561 23.9922 629.361 22.4922V20.9922H650.361V22.4922C649.161 23.9922 647.361 27.2922 647.361 33.1422V91.3422H647.961L665.361 35.9922V33.1422C665.361 27.2922 663.561 23.9922 662.361 22.4922V20.9922H683.361V22.4922C682.161 23.9922 680.361 27.2922 680.361 33.1422ZM765.713 43.4922H764.213L757.013 33.1422C761.813 25.6422 768.863 19.4922 778.013 19.4922C799.013 19.4922 808.013 44.5422 808.013 73.4922C808.013 102.442 799.013 127.492 778.013 127.492C768.713 127.492 761.813 121.492 757.013 113.842L764.213 103.492H765.713C767.213 115.342 770.513 122.992 778.013 122.992C790.763 122.992 791.513 100.792 791.513 73.4922V69.7422H788.513C782.663 69.7422 779.363 71.5422 777.863 72.7422H776.513V62.9922H778.013C779.513 64.1922 782.813 65.9922 788.663 65.9922H791.513C791.363 42.2922 789.563 23.9922 778.013 23.9922C770.513 23.9922 767.213 31.6422 765.713 43.4922ZM850.425 37.1922L840.225 61.0422C866.625 61.6422 863.925 83.2422 863.925 119.992C863.925 121.192 864.825 121.942 865.725 121.942C866.475 121.942 867.375 121.192 867.375 119.992H871.875C871.875 124.492 866.625 127.192 861.225 127.192C855.225 127.192 848.925 123.892 848.925 115.342C848.925 87.8922 851.475 68.5422 837.225 65.5422H834.225V113.842C834.225 119.692 836.025 122.992 837.225 124.492V125.992H816.225V124.492C817.425 122.992 819.225 119.692 819.225 113.842V33.1422C819.225 27.2922 817.425 23.9922 816.225 22.4922V20.9922H837.225V22.4922C836.025 23.9922 834.225 27.2922 834.225 33.1422V61.0422H835.125L847.275 33.2922C851.325 23.8422 847.575 23.8422 845.175 22.4922V20.9922H862.575V22.4922C857.625 24.4422 854.925 26.6922 850.425 37.1922ZM925.119 33.1422L917.919 43.4922H916.419C914.919 31.6422 911.619 23.9922 904.119 23.9922C891.369 23.9922 890.619 46.1922 890.619 73.4922C890.619 100.792 891.369 122.992 904.119 122.992C911.619 122.992 914.919 115.342 916.419 103.492H917.919L925.119 113.842C920.319 121.492 913.419 127.492 904.119 127.492C883.119 127.492 874.119 102.442 874.119 73.4922C874.119 44.5422 883.119 19.4922 904.119 19.4922C913.269 19.4922 920.319 25.6422 925.119 33.1422ZM931.866 125.992V124.492C933.066 122.992 934.866 119.692 934.866 113.842V33.1422C934.866 27.2922 933.066 23.9922 931.866 22.4922V20.9922H984.366V22.4922C983.166 23.9922 981.366 27.2922 981.366 33.1422V113.842C981.366 119.692 983.166 122.992 984.366 124.492V125.992H963.366V124.492C964.566 122.992 966.366 119.692 966.366 113.842V25.4922H949.866V113.842C949.866 119.692 951.666 122.992 952.866 124.492V125.992H931.866ZM1013.62 88.4922V113.842C1013.62 119.692 1015.42 122.992 1016.62 124.492V125.992H995.62V124.492C996.82 122.992 998.62 119.692 998.62 113.842V33.1422C998.62 27.2922 996.82 23.9922 995.62 22.4922V20.9922H1013.62C1034.77 20.9922 1043.92 38.2422 1043.92 54.8922C1043.92 71.3922 1034.77 88.4922 1013.62 88.4922ZM1013.62 25.4922V83.9922C1026.52 83.9922 1027.27 70.4922 1027.27 54.8922C1027.27 39.1422 1026.52 25.4922 1013.62 25.4922ZM1069.63 121.492H1080.13C1085.98 121.492 1089.28 119.692 1090.78 118.492H1092.28L1090.63 125.992H1051.63V124.492C1052.83 122.992 1054.63 119.692 1054.63 113.842V33.1422C1054.63 27.2922 1053.28 23.5422 1051.63 22.4922V20.9922H1086.13L1087.78 28.4922H1086.28C1084.78 27.2922 1081.48 25.4922 1075.63 25.4922H1069.63V50.9922H1069.93C1075.78 50.9922 1079.08 49.1922 1080.58 47.9922H1082.08V57.7422H1080.73C1079.23 56.5422 1075.93 54.7422 1070.08 54.7422H1069.63V121.492ZM1145.56 33.1422L1138.36 43.4922H1136.86C1135.36 31.6422 1132.06 23.9922 1124.56 23.9922C1111.81 23.9922 1111.06 46.1922 1111.06 73.4922C1111.06 100.792 1111.81 122.992 1124.56 122.992C1132.06 122.992 1135.36 115.342 1136.86 103.492H1138.36L1145.56 113.842C1140.76 121.492 1133.86 127.492 1124.56 127.492C1103.56 127.492 1094.56 102.442 1094.56 73.4922C1094.56 44.5422 1103.56 19.4922 1124.56 19.4922C1133.71 19.4922 1140.76 25.6422 1145.56 33.1422ZM1198.77 33.1422L1191.57 43.4922H1190.07C1188.57 31.6422 1185.27 23.9922 1177.77 23.9922C1165.02 23.9922 1164.27 46.1922 1164.27 73.4922C1164.27 100.792 1165.02 122.992 1177.77 122.992C1185.27 122.992 1188.57 115.342 1190.07 103.492H1191.57L1198.77 113.842C1193.97 121.492 1187.07 127.492 1177.77 127.492C1156.77 127.492 1147.77 102.442 1147.77 73.4922C1147.77 44.5422 1156.77 19.4922 1177.77 19.4922C1186.92 19.4922 1193.97 25.6422 1198.77 33.1422Z" fill="#F7ECE3"/>
</svg>
