<?xml version="1.0" encoding="UTF-8"?> <svg xmlns="http://www.w3.org/2000/svg" width="438" height="438" viewBox="0 0 438 438" fill="none"><path d="M36.5 219C36.5 132.969 36.5 89.953 63.2266 63.2266C89.953 36.5 132.969 36.5 219 36.5C305.03 36.5 348.048 36.5 374.773 63.2266C401.5 89.953 401.5 132.969 401.5 219C401.5 305.03 401.5 348.048 374.773 374.773C348.048 401.5 305.03 401.5 219 401.5C132.969 401.5 89.953 401.5 63.2266 374.773C36.5 348.048 36.5 305.03 36.5 219Z" fill="#F3E7DD"></path><path fill-rule="evenodd" clip-rule="evenodd" d="M126.177 205.312H36.5044C36.5 209.751 36.5 214.312 36.5 219C36.5 223.688 36.5 228.249 36.5044 232.687H182.269C182.56 232.691 182.852 232.693 183.146 232.693H185.475C179.293 258.849 155.795 278.312 127.75 278.312C120.191 278.312 114.062 284.441 114.062 292C114.062 299.559 120.191 305.687 127.75 305.687C161.696 305.687 191.085 286.176 205.312 257.756V401.496C209.751 401.5 214.312 401.5 219 401.5C223.688 401.5 228.249 401.5 232.687 401.496V257.756C246.915 286.176 276.305 305.687 310.25 305.687C317.809 305.687 323.937 299.559 323.937 292C323.937 284.441 317.809 278.312 310.25 278.312C282.205 278.312 258.706 258.849 252.525 232.693H254.859C255.151 232.693 255.443 232.691 255.735 232.687H401.496C401.5 228.249 401.5 223.688 401.5 219C401.5 214.312 401.5 209.751 401.496 205.312H311.829C318.231 197.314 323.016 187.878 325.626 177.441C335.448 138.149 299.857 102.557 260.564 112.38C250.125 114.99 240.688 119.776 232.687 126.181V36.5044C228.249 36.5 223.688 36.5 219 36.5C214.312 36.5 209.751 36.5 205.312 36.5044V126.177C197.314 119.774 187.878 114.99 177.441 112.38C138.149 102.557 102.557 138.149 112.38 177.441C114.99 187.878 119.774 197.314 126.177 205.312ZM205.312 205.312H182.453C161.834 205.002 143.953 190.862 138.938 170.802C134.127 151.558 151.558 134.127 170.802 138.938C190.862 143.953 205.002 161.834 205.312 182.453V205.312ZM255.553 205.312H232.693V183.146L232.691 182.602C232.936 161.921 247.094 143.965 267.204 138.938C286.447 134.127 303.879 151.558 299.066 170.802C294.051 190.862 276.17 205.002 255.553 205.312Z" fill="#ED7144"></path></svg> 