<?xml version="1.0" encoding="UTF-8"?> <svg xmlns="http://www.w3.org/2000/svg" width="624" height="632" viewBox="0 0 624 632" fill="none"><path d="M262 55H457L577 218.5L528.5 322H262V55Z" fill="#ED7143"></path><path d="M92 298L312.5 312L337.5 581L175.5 528.5L92 298Z" fill="#ED7143"></path><path d="M614.188 128.969C549.656 128.969 497.313 76.625 497.313 12.0937C497.313 8.34375 497.469 4.4375 497.938 0.6875H132C132.313 4.4375 132.469 8.1875 132.469 12.0937C132.469 28.3438 129.188 43.9688 123.094 58.0313C105.281 99.9063 63.7188 129.125 15.4375 129.125C10.2812 129.125 5.4375 128.813 0.4375 128.188C2.46875 183.656 11.2188 236.938 26.0625 287.094C43.7188 347.406 69.9688 403.031 103.094 452.094C157 531.938 229.031 594.594 312 631.469C488.25 553.031 615.125 358.656 623.406 128.656C620.281 128.813 617.313 128.969 614.188 128.969ZM519.813 312.25H312.156V558.031C312.156 558.031 312.156 558.031 312 558.031C252.156 525.531 199.188 476.625 157.781 415.063C136.375 383.344 118.406 348.813 104.188 312.25H312.156V66.4688H439.656C456.844 121.156 499.031 164.906 552.781 184.125C546.688 228.5 535.594 271.625 519.813 312.25Z" fill="#F3E7DD"></path></svg> 