<?xml version="1.0" encoding="UTF-8"?> <svg xmlns="http://www.w3.org/2000/svg" width="438" height="438" viewBox="0 0 438 438" fill="none"><g clip-path="url(#clip0_4666_871)"><g clip-path="url(#clip1_4666_871)"><path d="M528 328H0V45H149.334V45.001C149.334 65.8403 168.437 82.7344 192.001 82.7344C215.565 82.7342 234.667 65.8402 234.667 45.001V45H528V328Z" fill="#F3E7DD"></path></g><path d="M430.739 226.841C419.954 222.672 410.212 218.503 401.512 214.425C396.755 212.205 391.997 209.894 387.33 207.492C367.03 197.025 353.753 187.827 346.503 182.208C344.464 180.622 342.017 179.852 339.616 179.852C337.214 179.852 334.722 180.622 332.728 182.208C321.174 191.134 294.576 209.078 248.448 226.84C243.916 228.607 240.971 233.048 241.198 237.942C241.47 243.923 242.104 249.903 243.056 255.84C248.312 289.598 267.252 348.232 334.224 384.391C335.9 385.297 337.759 385.75 339.616 385.75C341.473 385.75 343.331 385.297 345.008 384.391C426.343 340.393 436.811 263.226 437.988 237.896C438.215 233.048 435.27 228.608 430.739 226.841Z" fill="#ED7144"></path></g><defs><clipPath id="clip0_4666_871"><rect width="438" height="438" fill="white"></rect></clipPath><clipPath id="clip1_4666_871"><rect y="45" width="384" height="197" rx="21.3333" fill="white"></rect></clipPath></defs></svg> 